<svg width="20" height="20" viewBox="0 0 20 20" fill="none" xmlns="http://www.w3.org/2000/svg">
<path d="M12.6833 11.6667H12.0369L11.8077 11.4417C12.6097 10.4917 13.0924 9.25839 13.0924 7.91673C13.0924 4.92506 10.7113 2.50006 7.77364 2.50006C4.83602 2.50006 2.45483 4.92506 2.45483 7.91673C2.45483 10.9084 4.83602 13.3334 7.77364 13.3334C9.09107 13.3334 10.3021 12.8417 11.235 12.0251L11.4559 12.2584V12.9167L14.9259 16.4435C15.2673 16.7905 15.8269 16.7903 16.168 16.4429C16.5004 16.1044 16.5007 15.5621 16.1686 15.2233L12.6833 11.6667ZM7.77364 11.6667C5.73613 11.6667 4.09139 9.99173 4.09139 7.91673C4.09139 5.84173 5.73613 4.16673 7.77364 4.16673C9.81115 4.16673 11.4559 5.84173 11.4559 7.91673C11.4559 9.99173 9.81115 11.6667 7.77364 11.6667Z" fill="#B1DBC2"/>
</svg>
